# xmcd
#
# Track frame offsets:
# 150
# 15105
# 33191
# 58910
# 81331
# 111013
# 129367
# 147104
# 167338
# 187591
# 207071
# 223275
# 242629
# 260987
# 288193
#
# Disc length: 4114 seconds
#
#
# Revision: 1
# Processed by: cddbd v1.5.1PL2 Copyright (c) Steve Scherf et al.
# Submitted via: FreeRIP 2.92 
#
DISCID=c910100f
DTITLE=Noyau dur - Noyau dur
DYEAR=2005
DGENRE=Rap
TTITLE0=Présentation
TTITLE1=Réconciliation
TTITLE2=Départements
TTITLE3=On ne sera jamais pareils
TTITLE4=Instinct de survie feat Mystik
TTITLE5=Attitude
TTITLE6=Tout est permis (viens...)
TTITLE7=L'histoire continue feat MC Ja
TTITLE8=Mode guerre
TTITLE9=Besoin d'ennemis
TTITLE10=OP
TTITLE11=Partis de rien
TTITLE12=Profesionnels
TTITLE13=Le son des loups feat Dontcha,
TTITLE14=Dead
EXTD=
EXTT0=
EXTT1=
EXTT2=
EXTT3=
EXTT4=
EXTT5=
EXTT6=
EXTT7=
EXTT8=
EXTT9=
EXTT10=
EXTT11=
EXTT12=
EXTT13=
EXTT14=
PLAYORDER=
